<svg width="200" height="100" viewBox="0 0 200 100" fill="none" xmlns="http://www.w3.org/2000/svg">
  <!-- Main body (bird-like, bronze-green) -->
  <ellipse cx="100" cy="60" rx="38" ry="22" fill="#7A8B3A" stroke="#3A3A3A" stroke-width="3"/>
  <!-- Head/beak (front) -->
  <ellipse cx="62" cy="60" rx="10" ry="8" fill="#BFAE6A" stroke="#3A3A3A" stroke-width="2"/>
  <polygon points="52,60 62,64 62,56" fill="#BFAE6A" stroke="#3A3A3A" stroke-width="2"/>
  <!-- Wings (swept, feathered) -->
  <path d="M62 60 Q30 40 20 80 Q60 70 100 80" fill="#7A8B3A" stroke="#3A3A3A" stroke-width="3"/>
  <path d="M138 60 Q170 40 180 80 Q140 70 100 80" fill="#7A8B3A" stroke="#3A3A3A" stroke-width="3"/>
  <!-- Wing feather details -->
  <path d="M40 60 Q50 70 80 75" stroke="#BFAE6A" stroke-width="2" fill="none"/>
  <path d="M160 60 Q150 70 120 75" stroke="#BFAE6A" stroke-width="2" fill="none"/>
  <!-- Tail feathers -->
  <path d="M100 82 Q95 90 100 98 Q105 90 100 82" fill="#BFAE6A" stroke="#3A3A3A" stroke-width="2"/>
  <!-- Cockpit/canopy -->
  <ellipse cx="80" cy="60" rx="6" ry="4" fill="#4A5A2A" stroke="#3A3A3A" stroke-width="1"/>
</svg>